<svg width="1176" height="67" viewBox="0 0 1176 67" fill="none" xmlns="http://www.w3.org/2000/svg">
<g clip-path="url(#clip0_1_6595)">
<g clip-path="url(#clip1_1_6595)">
<path d="M116.262 37.7259L119.591 39.9618C118.511 41.5651 115.927 44.3158 111.459 44.3158C105.911 44.3158 101.779 39.9912 101.779 34.4898C101.779 28.6354 105.954 24.6638 110.992 24.6638C116.058 24.6638 118.54 28.7237 119.343 30.9154L119.781 32.0333L106.728 37.4759C107.721 39.447 109.269 40.4472 111.459 40.4472C113.649 40.4472 115.167 39.3587 116.262 37.7259ZM106.027 34.1809L114.744 30.5329C114.262 29.312 112.831 28.4442 111.123 28.4442C108.948 28.4442 105.925 30.3858 106.027 34.1809Z" fill="#FF302F"/>
<path d="M72.4465 34.4898C72.4465 40.153 68.0663 44.3158 62.6934 44.3158C57.3204 44.3158 52.9403 40.153 52.9403 34.4898C52.9403 28.7972 57.3204 24.6638 62.6934 24.6638C68.0663 24.6638 72.4465 28.7825 72.4465 34.4898ZM68.1685 34.4898C68.1685 30.9595 65.6281 28.5324 62.6788 28.5324C59.7295 28.5324 57.189 30.9595 57.189 34.4898C57.189 37.9907 59.7295 40.4472 62.6788 40.4472C65.6427 40.4472 68.1685 37.976 68.1685 34.4898Z" fill="#FFBA40"/>
<path d="M88.8574 25.4285H92.9163V42.9035C92.9163 50.1553 88.6676 53.1414 83.645 53.1414C78.9145 53.1414 76.0674 49.9347 75.0016 47.3311L78.7247 45.7719C79.3963 47.3752 81.017 49.2728 83.645 49.2728C86.8717 49.2728 88.8574 47.2576 88.8574 43.4919V42.0798H88.7114C87.7478 43.2565 85.9081 44.3156 83.572 44.3156C78.6955 44.3156 74.2278 40.0352 74.2278 34.5191C74.2278 28.9735 78.6955 24.6489 83.572 24.6489C85.8935 24.6489 87.7478 25.6933 88.7114 26.8407H88.8574V25.4285ZM89.1494 34.5191C89.1494 31.0476 86.8571 28.5175 83.9371 28.5175C80.9878 28.5175 78.5057 31.0476 78.5057 34.5191C78.5057 37.9464 80.9878 40.4323 83.9371 40.4323C86.8571 40.447 89.1494 37.9464 89.1494 34.5191Z" fill="#3686F7"/>
<path d="M51.1445 34.4455C51.1445 40.1086 46.7643 44.2715 41.3914 44.2715C36.0184 44.2715 31.6383 40.0939 31.6383 34.4455C31.6383 28.7528 36.0184 24.6047 41.3914 24.6047C46.7643 24.6047 51.1445 28.7528 51.1445 34.4455ZM46.8811 34.4455C46.8811 30.9151 44.3407 28.4881 41.3914 28.4881C38.4421 28.4881 35.9016 30.9151 35.9016 34.4455C35.9016 37.9463 38.4421 40.4028 41.3914 40.4028C44.3407 40.4028 46.8811 37.9463 46.8811 34.4455Z" fill="#FF302F"/>
<path d="M95.486 14.6465H99.6909V43.4184H95.486V14.6465Z" fill="#20B15A"/>
<path d="M15.6071 40.0058C9.4895 40.0058 4.70057 35.0339 4.70057 28.8706C4.70057 22.7073 9.4895 17.7354 15.6071 17.7354C18.9068 17.7354 21.3158 19.0446 23.0971 20.7215L26.0318 17.7649C23.5497 15.3672 20.2354 13.5432 15.6071 13.5432C7.22644 13.5432 0.174438 20.4273 0.174438 28.8706C0.174438 37.3139 7.22644 44.198 15.6071 44.198C20.1332 44.198 23.5497 42.6976 26.2216 39.9028C28.9665 37.1374 29.8133 33.2541 29.8133 30.1062C29.8133 29.1207 29.6965 28.1057 29.5651 27.3555H15.6071V31.4448H25.55C25.258 34.0042 24.4549 35.7547 23.2723 36.9462C21.8415 38.4024 19.5784 40.0058 15.6071 40.0058Z" fill="#3686F7"/>
</g>
<g clip-path="url(#clip2_1_6595)">
<path fill-rule="evenodd" clip-rule="evenodd" d="M276.233 41.074C274.276 43.0322 271.936 44.0165 269.224 44.0165C267.031 44.0165 265.167 43.5755 263.265 42.4852V37.9961C264.795 39.02 266.718 39.9949 268.614 39.9949C272.57 39.9949 274.924 37.309 274.924 33.5029C274.924 29.6936 272.489 26.9281 268.531 26.9281C266.764 26.9281 265.331 27.5552 264.212 28.8115C263.012 30.1726 262.392 32.118 262.392 34.6901V52.4161H262.094C259.913 52.4161 258.147 50.6729 258.147 48.5225V34.0251C258.147 27.873 261.959 22.9059 268.512 22.9059C271.748 22.9059 274.375 23.9973 276.368 26.1899C278.241 28.2387 279.17 30.8344 279.17 33.9581C279.17 36.7378 278.19 39.1149 276.233 41.074ZM322.196 40.9239C320.247 42.9874 317.74 44.0165 314.7 44.0165C311.491 44.0165 308.876 42.9252 306.885 40.7326C305.013 38.6585 304.084 36.0607 304.084 32.9649C304.084 27.4851 308.371 22.9059 314.013 22.9059C316.19 22.9059 318.079 23.3591 319.988 24.3919V28.9269C318.458 27.903 316.536 26.9281 314.64 26.9281C310.684 26.9281 308.328 29.6135 308.328 33.4212C308.328 37.1767 310.821 39.9949 314.721 39.9949C316.487 39.9949 317.941 39.342 319.105 38.0267C320.261 36.7199 320.862 34.7997 320.862 32.2203V18.1113C320.862 15.9603 322.629 14.2176 324.809 14.2176H325.107V32.8821C325.107 36.1692 324.143 38.8598 322.196 40.9239ZM334.184 20.9136C333.738 21.4057 333.1 21.6323 332.321 21.6323C330.863 21.6323 329.821 20.5721 329.821 19.1456C329.821 17.6855 330.844 16.7001 332.321 16.7001C333.742 16.7001 334.821 17.7392 334.821 19.1456C334.821 19.8412 334.614 20.4377 334.184 20.9136ZM355.754 32.2203C355.754 30.5693 355.121 29.2625 353.849 28.2724C352.703 27.3813 351.272 26.9281 349.53 26.9281C345.688 26.9281 343.221 29.8912 343.221 33.5445C343.221 37.0608 345.836 39.9949 349.49 39.9949C352.032 39.9949 353.391 38.5305 354.84 36.7062V41.9662C354.102 42.5121 353.252 43.107 352.385 43.4564C351.47 43.8331 350.378 44.0165 349.116 44.0165C343.005 44.0165 338.976 39.0242 338.976 33.2552C338.976 30.2927 339.909 27.8434 341.787 25.9338C343.779 23.9098 346.393 22.9059 349.593 22.9059C355.66 22.9059 360 26.3422 360 32.5512V43.6029H359.703C357.521 43.6029 355.754 41.8597 355.754 39.7087V32.2203ZM297.641 31.0341C297.104 29.3974 296.432 28.5922 294.885 27.7402C291.206 25.7125 287.585 27.4388 285.901 31.0183L297.641 31.0341ZM294.401 43.9549C291.69 44.5234 289.029 44.085 286.433 42.6538C283.901 41.259 282.205 39.1844 281.355 36.4432C279.637 30.8992 283.157 24.7213 288.819 23.2253C291.626 22.4839 294.316 22.8195 296.873 24.2286C301.119 26.5703 302.667 30.1921 302.397 34.8587L285.293 34.825C285.546 36.7283 286.742 38.2175 288.423 39.1438C290.128 40.0834 291.695 40.3079 293.149 39.8631C294.764 39.3631 296.073 38.0631 297.139 36.8532L300.624 39.3583C299.203 41.8676 297.267 43.3531 294.401 43.9549V43.9549ZM330.198 23.3201H334.443V43.6029H334.144C331.966 43.6029 330.198 41.8597 330.198 39.7087V23.3201ZM186.213 43.6028C182.06 43.6028 180 40.8168 180 36.9263V22.166C180 20.0155 181.768 18.2724 183.948 18.2724H184.246V23.32H191.418V27.3422H184.246V37.3922C184.246 39.101 185.019 39.5811 186.674 39.5811H191.418V43.6028H186.213ZM210.867 41.0392C208.77 43.0226 206.249 44.0164 203.32 44.0164C200.419 44.0164 197.913 43.0215 195.816 41.0392C193.711 39.0484 192.662 36.5148 192.662 33.4617C192.662 27.505 197.273 22.9064 203.32 22.9064C206.223 22.9064 208.736 23.9086 210.846 25.9058C212.964 27.9087 214.021 30.4349 214.021 33.4617C214.021 36.5148 212.971 39.0484 210.867 41.0392ZM230.715 28.2006C230.092 29.2308 229.609 29.9696 229.269 30.4159C228.895 30.9012 228.525 31.2891 228.159 31.5573C231.109 32.4973 232.208 34.5134 232.208 37.517V43.6028H231.91C229.73 43.6028 227.962 41.8596 227.962 39.7086V37.9302C227.962 35.9852 227.078 34.6657 224.989 34.6657H221.133V43.6028H220.835C218.655 43.6028 216.889 41.8596 216.889 39.7086V18.1111C216.889 15.9601 218.655 14.2175 220.835 14.2175H221.133V30.6024H222.388C223.767 30.6024 224.673 30.1371 225.193 29.2571L228.759 23.3211L233.596 23.3163L230.715 28.2006ZM252.629 41.0392C250.531 43.0226 248.01 44.0164 245.082 44.0164C242.181 44.0164 239.675 43.0215 237.577 41.0392C235.473 39.0484 234.423 36.5148 234.423 33.4617C234.423 27.505 239.035 22.9064 245.082 22.9064C247.984 22.9064 250.497 23.9086 252.608 25.9058C254.725 27.9087 255.782 30.4349 255.782 33.4617C255.782 36.5148 254.733 39.0484 252.629 41.0392ZM249.564 28.7413C248.394 27.534 246.908 26.928 245.082 26.928C241.175 26.928 238.836 29.7377 238.836 33.4617C238.836 37.134 241.231 39.9948 245.082 39.9948C248.934 39.9948 251.327 37.134 251.327 33.4617C251.327 31.5119 250.733 29.9474 249.564 28.7413ZM207.803 28.7413C206.633 27.534 205.147 26.928 203.32 26.928C199.414 26.928 197.075 29.7377 197.075 33.4617C197.075 37.134 199.469 39.9948 203.32 39.9948C207.172 39.9948 209.566 37.134 209.566 33.4617C209.566 31.5119 208.972 29.9474 207.803 28.7413Z" fill="#42B549"/>
</g>
<g clip-path="url(#clip3_1_6595)">
<path d="M452.344 23.8602C447.891 23.8602 444.492 26.7789 443.086 31.4487C440.977 28.2966 439.453 24.7942 438.398 21.175H433.594V33.5502C433.594 36.0018 431.602 37.9865 429.141 37.9865C426.68 37.9865 424.688 36.0018 424.688 33.5502V21.2918H420V33.6669C420 38.687 424.102 42.8899 429.258 42.8899C434.414 42.8899 438.516 38.8038 438.516 33.6669V31.5655C439.453 33.5502 440.625 35.4181 441.914 37.1693L438.984 50.8286H443.906L446.016 40.9052C447.891 42.1894 450.117 42.8899 452.461 42.8899C457.734 42.8899 461.953 38.687 461.953 33.4334C461.836 28.1798 457.617 23.8602 452.344 23.8602ZM452.344 38.1033C450.352 37.9865 448.477 37.2861 446.953 36.0018L447.305 34.1339V34.0172C447.656 32.0325 448.828 28.6468 452.227 28.6468C454.805 28.5301 456.914 30.6315 457.031 33.1999C457.148 35.7683 455.039 37.8698 452.461 37.9865L452.344 38.1033Z" fill="#6FDA44"/>
<path d="M496.641 23.8602C491.367 23.8602 487.148 28.0631 487.148 33.3167C487.148 38.5702 491.367 42.7731 496.641 42.7731C501.914 42.7731 506.133 38.5702 506.133 33.3167C506.133 28.0631 501.914 23.8602 496.641 23.8602ZM496.641 38.9205C493.594 38.9205 491.016 36.4688 491.016 33.3167C491.016 30.1645 493.477 27.7128 496.641 27.7128C499.688 27.7128 502.266 30.1645 502.266 33.1999C502.266 36.3521 499.805 38.9205 496.641 38.9205ZM517.734 28.4133C515.039 28.4133 512.812 30.6315 512.812 33.3167V42.3061H508.711V24.4439H512.812V27.2458C513.984 25.4946 515.977 24.4439 518.086 24.4439H519.375V28.4133H517.734ZM476.484 24.4439L479.531 36.819L482.93 24.4439H486.914L481.758 42.3061H477.656L474.492 29.8143L471.328 42.3061H467.227L462.07 24.4439H466.055L469.453 36.819L472.617 24.4439H476.484ZM531.328 32.6162C534.375 30.9817 536.133 27.8296 536.133 24.3272H532.148C532.148 27.3626 529.688 29.6975 526.758 29.6975H526.172V15.8047H522.07V42.3061H526.172V33.9004H526.641C527.109 33.9004 527.578 34.1339 527.812 34.4841L533.555 42.3061H538.477L531.328 32.6162Z" fill="black"/>
</g>
<g clip-path="url(#clip4_1_6595)">
<path d="M619.055 34.2161H636.308V51.446H619.055V34.2161Z" fill="#FFB900"/>
<path d="M600 34.2161H617.253V51.446H600V34.2161Z" fill="#00A4EF"/>
<path d="M660.007 36.071L658.993 38.9379H658.909C658.74 38.2915 658.43 37.3077 657.924 36.1272L652.492 22.495H647.172V44.2222H650.69V30.8149C650.69 29.9716 650.69 29.016 650.662 27.8355C650.634 27.2452 650.578 26.7955 650.55 26.4582H650.634C650.803 27.3014 651 27.9198 651.141 28.3133L657.67 44.1659H660.147L666.621 28.1727C666.762 27.8073 666.902 27.0765 667.043 26.4582H667.127C667.043 28.0603 666.987 29.4938 666.959 30.3651V44.1378H670.702V22.4388H665.579L660.007 36.071ZM674.248 28.5662H677.907V44.1378H674.248V28.5662ZM676.106 21.9891C675.487 21.9891 674.98 22.2139 674.558 22.6074C674.136 23.001 673.911 23.5069 673.911 24.1253C673.911 24.7155 674.136 25.2214 674.558 25.615C674.98 26.0085 675.487 26.2052 676.106 26.2052C676.725 26.2052 677.26 25.9804 677.654 25.615C678.076 25.2214 678.301 24.7155 678.301 24.1253C678.301 23.535 678.076 23.0291 677.654 22.6074C677.288 22.2139 676.753 21.9891 676.106 21.9891ZM690.882 28.4257C690.207 28.2852 689.503 28.2009 688.828 28.2009C687.167 28.2009 685.647 28.5662 684.381 29.297C683.114 30.0278 682.101 31.0397 681.454 32.3046C680.778 33.5975 680.44 35.0872 680.44 36.8018C680.44 38.2915 680.778 39.6125 681.425 40.8211C682.073 42.0017 682.973 42.9573 684.184 43.6038C685.338 44.2503 686.689 44.5876 688.209 44.5876C689.954 44.5876 691.445 44.2222 692.627 43.5476L692.656 43.5195V40.1466L692.515 40.259C691.98 40.6525 691.361 40.9898 690.742 41.1865C690.094 41.4114 689.503 41.5238 688.997 41.5238C687.533 41.5238 686.379 41.1022 685.563 40.1747C684.718 39.2752 684.296 38.0385 684.296 36.4926C684.296 34.8905 684.718 33.6256 685.591 32.6981C686.464 31.7705 687.617 31.2927 689.025 31.2927C690.207 31.2927 691.417 31.6862 692.515 32.4732L692.656 32.5856V29.016L692.627 28.9879C692.149 28.7911 691.614 28.5662 690.882 28.4257ZM702.957 28.3133C702.056 28.3133 701.212 28.5944 700.48 29.1846C699.861 29.6906 699.439 30.4213 699.073 31.2927H699.045V28.5662H695.386V44.1378H699.045V36.1834C699.045 34.8342 699.326 33.7099 699.945 32.8948C700.564 32.0516 701.353 31.63 702.31 31.63C702.647 31.63 702.985 31.7143 703.407 31.7705C703.801 31.8829 704.083 31.9954 704.28 32.1359L704.42 32.2483V28.5944L704.336 28.5662C704.083 28.3976 703.576 28.3133 702.957 28.3133ZM712.92 28.229C710.359 28.229 708.305 28.9879 706.869 30.4776C705.406 31.9673 704.702 34.0191 704.702 36.605C704.702 39.0223 705.434 40.9898 706.841 42.4233C708.248 43.8287 710.162 44.5595 712.555 44.5595C715.06 44.5595 717.058 43.8005 718.493 42.2827C719.957 40.7649 720.661 38.7412 720.661 36.2396C720.661 33.7661 719.985 31.7986 718.606 30.3651C717.283 28.9316 715.341 28.229 712.92 28.229ZM715.848 40.2028C715.172 41.0741 714.103 41.4957 712.78 41.4957C711.457 41.4957 710.387 41.0741 709.627 40.1466C708.867 39.2752 708.502 38.0104 708.502 36.4083C708.502 34.7499 708.896 33.4851 709.627 32.5856C710.387 31.6862 711.429 31.2365 712.752 31.2365C714.046 31.2365 715.06 31.6581 715.791 32.5294C716.523 33.4007 716.917 34.6656 716.917 36.3239C716.861 38.0104 716.551 39.3314 715.848 40.2028ZM728.823 35.031C727.669 34.5532 726.937 34.1878 726.599 33.8786C726.318 33.5975 726.177 33.204 726.177 32.6981C726.177 32.2764 726.346 31.8548 726.768 31.5738C727.19 31.2927 727.669 31.1521 728.372 31.1521C728.992 31.1521 729.639 31.2646 730.258 31.4332C730.877 31.6019 731.44 31.8548 731.891 32.1921L732.031 32.3046V28.8754L731.947 28.8473C731.525 28.6787 730.962 28.51 730.286 28.3695C729.611 28.2571 728.992 28.2009 728.485 28.2009C726.74 28.2009 725.305 28.6225 724.179 29.55C723.053 30.4213 722.518 31.6019 722.518 32.9791C722.518 33.7099 722.631 34.3564 722.884 34.8904C723.137 35.4245 723.503 35.9304 724.01 36.352C724.516 36.7456 725.248 37.1953 726.262 37.6169C727.106 37.9823 727.753 38.2634 728.147 38.4882C728.541 38.7131 728.795 38.966 728.992 39.1628C729.132 39.3877 729.217 39.6687 729.217 40.0341C729.217 41.0741 728.429 41.58 726.824 41.58C726.205 41.58 725.558 41.4676 724.798 41.2147C724.038 40.9617 723.334 40.5963 722.743 40.1747L722.603 40.0622V43.6319L722.687 43.66C723.222 43.913 723.869 44.0816 724.657 44.2784C725.445 44.4189 726.149 44.5313 726.768 44.5313C728.654 44.5313 730.202 44.1097 731.3 43.1822C732.425 42.2827 733.016 41.1303 733.016 39.6406C733.016 38.6006 732.735 37.6731 732.116 36.9704C731.3 36.2958 730.286 35.5931 728.823 35.031ZM742.67 28.229C740.109 28.229 738.055 28.9879 736.619 30.4776C735.184 31.9673 734.452 34.0191 734.452 36.605C734.452 39.0223 735.184 40.9898 736.591 42.4233C737.998 43.8287 739.912 44.5595 742.305 44.5595C744.81 44.5595 746.808 43.8005 748.243 42.2827C749.707 40.7649 750.411 38.7412 750.411 36.2396C750.411 33.7661 749.735 31.7986 748.356 30.3651C747.033 28.9316 745.091 28.229 742.67 28.229ZM745.569 40.2028C744.894 41.0741 743.824 41.4957 742.502 41.4957C741.151 41.4957 740.109 41.0741 739.349 40.1466C738.589 39.2752 738.223 38.0104 738.223 36.4083C738.223 34.7499 738.617 33.4851 739.349 32.5856C740.109 31.6862 741.151 31.2365 742.473 31.2365C743.74 31.2365 744.781 31.6581 745.513 32.5294C746.245 33.4007 746.639 34.6656 746.639 36.3239C746.639 38.0104 746.273 39.3314 745.569 40.2028ZM769.972 31.5738V28.5662H766.285V23.9566L766.172 23.9847L762.682 25.0247L762.598 25.0528V28.5662H757.081V26.5987C757.081 25.6993 757.306 24.9966 757.7 24.5469C758.094 24.0971 758.685 23.8723 759.417 23.8723C759.924 23.8723 760.459 23.9847 761.05 24.2377L761.19 24.322V21.1459L761.106 21.1177C760.599 20.9491 759.924 20.8367 759.051 20.8367C757.954 20.8367 756.997 21.0896 756.124 21.5113C755.252 21.9891 754.604 22.6356 754.126 23.5069C753.647 24.3501 753.394 25.3058 753.394 26.402V28.5662H750.833V31.5456H753.394V44.1378H757.081V31.5738H762.598V39.5844C762.598 42.873 764.146 44.5313 767.242 44.5313C767.748 44.5313 768.283 44.447 768.79 44.3627C769.324 44.2503 769.718 44.1097 769.944 43.9973L769.972 43.9692V40.9617L769.831 41.0741C769.606 41.2147 769.409 41.3271 769.071 41.4114C768.79 41.4957 768.536 41.5238 768.339 41.5238C767.608 41.5238 767.101 41.3552 766.735 40.9336C766.397 40.5401 766.228 39.8936 766.228 38.9379V31.5738H769.972Z" fill="#737373"/>
<path d="M619.055 15.1873H636.308V32.4172H619.055V15.1873Z" fill="#7FBA00"/>
<path d="M600 15.1873H617.253V32.4172H600V15.1873Z" fill="#F25022"/>
</g>
<g clip-path="url(#clip5_1_6595)">
<path d="M861.315 19.9502C861.291 19.7362 861.101 19.641 860.958 19.641C860.815 19.641 857.695 19.4032 857.695 19.4032C857.695 19.4032 855.528 17.2389 855.266 17.0248C855.028 16.787 854.576 16.8583 854.385 16.9059C854.361 16.9059 853.909 17.0486 853.171 17.2864C852.432 15.1697 851.17 13.2432 848.908 13.2432H848.694C848.075 12.4345 847.265 12.054 846.598 12.054C841.359 12.054 838.835 18.5945 838.049 21.9243C836.001 22.5665 834.548 22.9946 834.382 23.0659C833.239 23.4227 833.215 23.4465 833.072 24.5167C832.953 25.3254 829.976 48.3245 829.976 48.3245L853.147 52.6532L865.72 49.9418C865.744 49.8942 861.339 20.1643 861.315 19.9502ZM851.885 17.6194C851.313 17.7859 850.623 17.9999 849.932 18.2378V17.8097C849.932 16.5253 849.765 15.4788 849.456 14.6464C850.646 14.7891 851.385 16.0972 851.885 17.6194ZM848.003 14.908C848.313 15.7167 848.527 16.8583 848.527 18.4281V18.6659C847.241 19.0702 845.884 19.4745 844.479 19.9264C845.264 16.9297 846.765 15.4551 848.003 14.908ZM846.479 13.4334C846.717 13.4334 846.955 13.5286 847.146 13.6713C845.455 14.4561 843.669 16.4302 842.931 20.4259C841.811 20.7827 840.74 21.0919 839.716 21.4248C840.573 18.3805 842.716 13.4334 846.479 13.4334Z" fill="#95BF47"/>
<path d="M848.908 26.5384L847.384 31.1287C847.384 31.1287 846.003 30.3914 844.36 30.3914C841.907 30.3914 841.788 31.9373 841.788 32.3179C841.788 34.4109 847.265 35.2195 847.265 40.1428C847.265 44.0196 844.812 46.5169 841.502 46.5169C837.501 46.5169 835.501 44.0434 835.501 44.0434L836.573 40.5233C836.573 40.5233 838.668 42.3309 840.43 42.3309C841.597 42.3309 842.074 41.4271 842.074 40.7612C842.074 38.026 837.597 37.9071 837.597 33.3882C837.597 29.6065 840.311 25.9438 845.812 25.9438C847.86 25.92 848.908 26.5384 848.908 26.5384Z" fill="white"/>
<path d="M880.39 35.1718C879.128 34.5059 878.485 33.9113 878.485 33.1264C878.485 32.1275 879.39 31.4853 880.795 31.4853C882.438 31.4853 883.89 32.1513 883.89 32.1513L885.034 28.655C885.034 28.655 883.986 27.8464 880.89 27.8464C876.58 27.8464 873.579 30.3199 873.579 33.7924C873.579 35.7664 874.984 37.2648 876.842 38.3351C878.366 39.1675 878.89 39.7859 878.89 40.6897C878.89 41.6173 878.128 42.3784 876.723 42.3784C874.651 42.3784 872.674 41.3081 872.674 41.3081L871.46 44.8043C871.46 44.8043 873.27 46.0173 876.318 46.0173C880.747 46.0173 883.962 43.8292 883.962 39.9048C883.914 37.7643 882.319 36.2897 880.39 35.1718ZM898.06 27.7988C895.869 27.7988 894.154 28.8453 892.844 30.415L892.797 30.3913L894.702 20.4971H889.772L884.962 45.7081H889.892L891.535 37.0983C892.178 33.8399 893.868 31.8183 895.44 31.8183C896.559 31.8183 896.988 32.5794 896.988 33.6497C896.988 34.3156 896.94 35.1718 896.774 35.8378L894.916 45.7081H899.846L901.775 35.5286C901.989 34.4583 902.132 33.174 902.132 32.294C902.108 29.4637 900.655 27.7988 898.06 27.7988ZM913.277 27.7988C907.323 27.7988 903.394 33.1502 903.394 39.12C903.394 42.9254 905.751 46.0173 910.181 46.0173C916.015 46.0173 919.944 40.8086 919.944 34.6962C919.968 31.1523 917.92 27.7988 913.277 27.7988ZM910.848 42.2595C909.157 42.2595 908.466 40.8324 908.466 39.0248C908.466 36.1945 909.919 31.6042 912.61 31.6042C914.348 31.6042 914.944 33.1264 914.944 34.5772C914.944 37.5978 913.443 42.2595 910.848 42.2595ZM932.59 27.7988C929.256 27.7988 927.374 30.748 927.374 30.748H927.327L927.612 28.108H923.231C923.016 29.8918 922.612 32.627 922.231 34.6486L918.825 52.7006H923.755L925.136 45.3989H925.255C925.255 45.3989 926.279 46.0411 928.136 46.0411C933.947 46.0411 937.733 40.0951 937.733 34.1016C937.709 30.7718 936.209 27.7988 932.59 27.7988ZM927.874 42.307C926.588 42.307 925.826 41.5697 925.826 41.5697L926.636 36.9794C927.208 33.8875 928.827 31.8659 930.542 31.8659C932.066 31.8659 932.518 33.2691 932.518 34.5772C932.542 37.7643 930.637 42.307 927.874 42.307ZM944.758 20.735C943.187 20.735 941.925 21.9955 941.925 23.5891C941.925 25.0399 942.853 26.0626 944.258 26.0626H944.306C945.854 26.0626 947.164 25.0161 947.187 23.2085C947.211 21.7577 946.235 20.735 944.758 20.735ZM937.852 45.6843H942.782L946.116 28.1794H941.162L937.852 45.6843ZM958.689 28.1556H955.26L955.427 27.3469C955.713 25.6583 956.713 24.1837 958.38 24.1837C959.261 24.1837 959.952 24.4453 959.952 24.4453L960.904 20.5685C960.904 20.5685 960.071 20.1404 958.213 20.1404C956.475 20.1404 954.712 20.6398 953.379 21.7815C951.688 23.2085 950.902 25.2777 950.521 27.3707L950.378 28.1794H948.068L947.33 31.9134H949.64L947.021 45.7081H951.95L954.57 31.9134H957.975L958.689 28.1556ZM970.572 28.1794C970.572 28.1794 967.477 35.9567 966.119 40.214H966.072C965.976 38.8346 964.857 28.1794 964.857 28.1794H959.666L962.642 44.2097C962.69 44.5665 962.666 44.7806 962.523 45.0184C961.952 46.1362 960.976 47.2065 959.832 47.9914C958.904 48.6573 957.856 49.1092 957.022 49.3946L958.404 53.5806C959.404 53.3666 961.499 52.5341 963.238 50.893C965.476 48.8 967.572 45.5416 969.715 41.1178L975.74 28.1556H970.572V28.1794Z" fill="black"/>
<path d="M860.958 19.5934C860.815 19.5934 857.695 19.3556 857.695 19.3556C857.695 19.3556 855.528 17.1912 855.266 16.9772C855.171 16.882 855.052 16.8345 854.957 16.8345L853.218 52.6531L865.792 49.9417C865.792 49.9417 861.386 20.1642 861.363 19.9502C861.267 19.7361 861.101 19.641 860.958 19.5934Z" fill="#5E8E3E"/>
</g>
<path d="M1110.09 20.7534H1102.59V46.9575H1110.09V20.7534Z" fill="#32325D"/>
<path fill-rule="evenodd" clip-rule="evenodd" d="M1094.55 22.9698L1094.08 20.7536H1087.62V46.9577H1095.09V29.1989C1096.85 26.8929 1099.84 27.3122 1100.77 27.6416V20.7536C1099.81 20.3943 1096.32 19.7354 1094.55 22.9698Z" fill="#32325D"/>
<path fill-rule="evenodd" clip-rule="evenodd" d="M1159.4 33.9604C1159.4 26.2938 1155.7 20.2444 1148.62 20.2444C1141.51 20.2444 1137.21 26.2938 1137.21 33.9005C1137.21 42.9147 1142.29 47.4667 1149.57 47.4667C1153.13 47.4667 1155.82 46.6581 1157.85 45.5201V39.5306C1155.82 40.5488 1153.49 41.1777 1150.53 41.1777C1147.63 41.1777 1145.06 40.1595 1144.73 36.6257H1159.34C1159.34 36.2364 1159.4 34.6791 1159.4 33.9604ZM1144.64 31.1153C1144.64 27.7313 1146.71 26.3237 1148.59 26.3237C1150.41 26.3237 1152.35 27.7313 1152.35 31.1153H1144.64Z" fill="#32325D"/>
<path fill-rule="evenodd" clip-rule="evenodd" d="M1125.68 20.2444C1122.75 20.2444 1120.87 21.622 1119.82 22.5803L1119.43 20.7235H1112.86V55.6424L1120.33 54.0552L1120.36 45.58C1121.44 46.3586 1123.02 47.4667 1125.65 47.4667C1130.99 47.4667 1135.86 43.1542 1135.86 33.6609C1135.83 24.9761 1130.9 20.2444 1125.68 20.2444ZM1123.89 40.8782C1122.12 40.8782 1121.08 40.2493 1120.36 39.4707L1120.33 28.3602C1121.11 27.4917 1122.18 26.8927 1123.89 26.8927C1126.6 26.8927 1128.49 29.9474 1128.49 33.8705C1128.49 37.8835 1126.63 40.8782 1123.89 40.8782Z" fill="#32325D"/>
<path fill-rule="evenodd" clip-rule="evenodd" d="M1059.43 28.3602C1059.43 27.1922 1060.38 26.743 1061.97 26.743C1064.24 26.743 1067.1 27.4318 1069.37 28.6596V21.622C1066.89 20.6337 1064.44 20.2444 1061.97 20.2444C1055.9 20.2444 1051.87 23.4188 1051.87 28.7195C1051.87 36.9851 1063.22 35.6674 1063.22 39.2311C1063.22 40.6087 1062.03 41.0579 1060.35 41.0579C1057.87 41.0579 1054.71 40.0397 1052.2 38.6621V45.7896C1054.98 46.9875 1057.78 47.4966 1060.35 47.4966C1066.57 47.4966 1070.84 44.412 1070.84 39.0514C1070.81 30.1271 1059.43 31.7143 1059.43 28.3602Z" fill="#32325D"/>
<path fill-rule="evenodd" clip-rule="evenodd" d="M1079.62 14.2549L1072.33 15.8122L1072.3 39.8001C1072.3 44.2324 1075.62 47.4967 1080.04 47.4967C1082.49 47.4967 1084.28 47.0474 1085.26 46.5084V40.429C1084.31 40.8184 1079.59 42.1959 1079.59 37.7637V27.1323H1085.26V20.7535H1079.59L1079.62 14.2549Z" fill="#32325D"/>
<path fill-rule="evenodd" clip-rule="evenodd" d="M1102.59 18.4775L1110.09 16.8604V10.781L1102.59 12.3682V18.4775Z" fill="#32325D"/>
</g>
<defs>
<clipPath id="clip0_1_6595">
<rect width="1175.53" height="66.6333" fill="white"/>
</clipPath>
<clipPath id="clip1_1_6595">
<rect width="120" height="39.6694" fill="white" transform="translate(0 13.4819)"/>
</clipPath>
<clipPath id="clip2_1_6595">
<rect width="180" height="38.5714" fill="white" transform="translate(180 14.031)"/>
</clipPath>
<clipPath id="clip3_1_6595">
<rect width="120" height="35.0239" fill="white" transform="translate(420 15.8047)"/>
</clipPath>
<clipPath id="clip4_1_6595">
<rect width="170" height="36.2587" fill="white" transform="translate(600 15.1873)"/>
</clipPath>
<clipPath id="clip5_1_6595">
<rect width="145.74" height="45.6652" fill="white" transform="translate(830 10.4841)"/>
</clipPath>
</defs>
</svg>
